<svg width="640" height="320" viewBox="0 0 640 320" fill="none" xmlns="http://www.w3.org/2000/svg">
  <rect width="640" height="320" fill="url(#paint0_linear)"/>
  <g opacity="0.5">
    <circle cx="520" cy="140" r="90" fill="url(#paint1_radial)"/>
    <rect x="420" y="160" width="70" height="110" rx="10" fill="url(#paint2_linear)"/>
    <path d="M160 180L190 130L220 180V260H160V180Z" fill="url(#paint3_linear)"/>
    <path d="M250 260L280 150L310 260H250Z" fill="url(#paint4_linear)"/>
    <path d="M330 260L360 200L390 260H330Z" fill="url(#paint5_linear)"/>
    <path d="M470 210L490 170L510 210V260H470V210Z" fill="url(#paint6_linear)"/>
    <path d="M540 260L560 210L580 260H540Z" fill="url(#paint7_linear)"/>
  </g>
  <defs>
    <linearGradient id="paint0_linear" x1="80" y1="20" x2="560" y2="300" gradientUnits="userSpaceOnUse">
      <stop stop-color="#1B2D6B"/>
      <stop offset="0.5" stop-color="#234189"/>
      <stop offset="1" stop-color="#2E8FFF"/>
    </linearGradient>
    <radialGradient id="paint1_radial" cx="0" cy="0" r="1" gradientUnits="userSpaceOnUse" gradientTransform="translate(520 140) rotate(90) scale(90)">
      <stop stop-color="#FFC857"/>
      <stop offset="1" stop-color="#FFC85700"/>
    </radialGradient>
    <linearGradient id="paint2_linear" x1="455" y1="160" x2="455" y2="270" gradientUnits="userSpaceOnUse">
      <stop stop-color="#C5A8FF"/>
      <stop offset="1" stop-color="#234189"/>
    </linearGradient>
    <linearGradient id="paint3_linear" x1="190" y1="130" x2="190" y2="260" gradientUnits="userSpaceOnUse">
      <stop stop-color="#FFFFFF" stop-opacity="0.5"/>
      <stop offset="1" stop-color="#FFFFFF00"/>
    </linearGradient>
    <linearGradient id="paint4_linear" x1="280" y1="150" x2="280" y2="260" gradientUnits="userSpaceOnUse">
      <stop stop-color="#A7F3D0" stop-opacity="0.7"/>
      <stop offset="1" stop-color="#0F172A" stop-opacity="0"/>
    </linearGradient>
    <linearGradient id="paint5_linear" x1="360" y1="200" x2="360" y2="260" gradientUnits="userSpaceOnUse">
      <stop stop-color="#2E8FFF" stop-opacity="0.8"/>
      <stop offset="1" stop-color="#0F172A" stop-opacity="0"/>
    </linearGradient>
    <linearGradient id="paint6_linear" x1="490" y1="170" x2="490" y2="260" gradientUnits="userSpaceOnUse">
      <stop stop-color="#FFFFFF" stop-opacity="0.4"/>
      <stop offset="1" stop-color="#FFFFFF00"/>
    </linearGradient>
    <linearGradient id="paint7_linear" x1="560" y1="210" x2="560" y2="260" gradientUnits="userSpaceOnUse">
      <stop stop-color="#A7F3D0" stop-opacity="0.6"/>
      <stop offset="1" stop-color="#0B0E1A" stop-opacity="0"/>
    </linearGradient>
  </defs>
</svg>
