<svg version="1.1" xmlns="http://www.w3.org/2000/svg" style="display: block;" viewBox="35.61 38.22 1976.89 1655.9" preserveAspectRatio="xMidYMid meet">
<defs>
	<linearGradient id="Gradient1" gradientUnits="userSpaceOnUse" x1="391.851" y1="340.961" x2="368.428" y2="399.369">
		<stop class="stop0" offset="0" stop-opacity="1" stop-color="rgb(178,175,222)"/>
		<stop class="stop1" offset="1" stop-opacity="1" stop-color="rgb(149,139,204)"/>
	</linearGradient>
	<linearGradient id="Gradient2" gradientUnits="userSpaceOnUse" x1="665.024" y1="86.9153" x2="782.109" y2="252.979">
		<stop class="stop0" offset="0" stop-opacity="0.835294" stop-color="rgb(189,189,220)"/>
		<stop class="stop1" offset="1" stop-opacity="0.933333" stop-color="rgb(201,200,218)"/>
	</linearGradient>
	<linearGradient id="Gradient3" gradientUnits="userSpaceOnUse" x1="1168.34" y1="281.67" x2="1043.7" y2="411.679">
		<stop class="stop0" offset="0" stop-opacity="1" stop-color="rgb(226,203,189)"/>
		<stop class="stop1" offset="1" stop-opacity="1" stop-color="rgb(185,140,244)"/>
	</linearGradient>
</defs>
<path transform="translate(0,0)" fill="rgb(27,42,71)" d="M 158.309 501.652 C 179.108 502.558 205.752 501.774 226.97 501.803 L 365.738 501.784 C 422.745 501.7 456.904 499.77 513.225 511.024 C 524.157 512.869 531.665 514.85 542.104 518.685 C 593.966 535.482 632.262 572.707 643.455 626.735 C 646.542 651.143 648.339 690.772 640.964 714.239 C 625.163 774.59 591.5 826.776 538.257 860.671 L 523.963 868.832 C 467.719 903.586 395.943 908.448 331.553 909.793 C 304.825 910.351 286.523 912.067 259.879 909.135 C 252.826 950.366 240.538 992.248 233.11 1033.66 C 229.418 1054.25 220.716 1074.74 220.256 1096.02 C 219.609 1110.69 226.693 1116.99 237.797 1124.29 C 253.022 1130.51 279.625 1131.29 296.078 1130.83 C 295.576 1138.91 294.857 1157.48 292.46 1164.32 L 290.88 1165.52 L 289.368 1164.98 C 276.51 1165.21 203.257 1163.58 198.024 1167.36 L 195.565 1166.02 C 188.932 1163.81 48.5056 1164.71 35.6115 1165.48 C 36.8309 1156.32 37.4177 1145.62 39.9856 1136.81 C 41.115 1132.94 43.0791 1132.41 46.062 1131.1 C 56.305 1130.93 71.1188 1127.96 81.0356 1125.4 C 82.5384 1124.37 87.3777 1122.76 89.6395 1121.36 C 105.273 1111.64 109.988 1099.24 114.715 1082.78 C 117.789 1072.03 121.462 1057.14 123.002 1046.09 C 128.157 1027.66 133.551 995.521 137.469 975.817 C 142.959 955.161 151.8 914.488 155 893.52 C 169.573 832.961 181.433 770.441 194.759 709.42 L 212.697 624.288 C 216.99 603.791 226.749 572.789 219.685 552.899 C 212.863 542.713 204.581 539.169 193.161 535.726 C 179.458 535.351 165.761 534.751 152.077 533.927 C 154.062 523.151 156.139 512.392 158.309 501.652 z M 288.994 775.865 C 283.154 796.632 278.497 824.483 273.579 846.36 L 269.324 870.794 C 281.842 872.814 293.05 871.553 305.499 871.966 C 352.65 873.532 401.063 868.6 443.298 845.873 C 485.843 822.627 514.121 775.525 527.361 730.36 C 543.828 674.19 548.198 605.772 497.954 565.401 C 481.945 552.538 467.613 548.227 448.147 542.626 C 428.118 538.368 412.968 537.481 392.719 536.828 C 375.752 536.99 358.783 537.058 341.815 537.034 C 331.889 576.073 324.301 613.871 315.885 653.144 L 288.994 775.865 z"/>
<path transform="translate(0,0)" fill="rgb(3,6,24)" d="M 237.797 1124.29 C 253.022 1130.51 279.625 1131.29 296.078 1130.83 C 295.576 1138.91 294.857 1157.48 292.46 1164.32 L 290.88 1165.52 L 289.368 1164.98 C 285.391 1163.43 280.989 1164.06 276.218 1163.06 C 279.399 1163.05 288.462 1163.45 290.797 1162.05 C 294.003 1154.51 292.541 1143.88 289.555 1136.3 C 278.997 1135.81 240.417 1135.86 235.778 1126.43 L 237.797 1124.29 z"/>
<path transform="translate(0,0)" fill="rgb(14,23,50)" d="M 640.964 714.239 C 638.38 699.577 641.283 679.465 641.643 664.418 C 641.896 653.881 637.699 635.347 643.455 626.735 C 646.542 651.143 648.339 690.772 640.964 714.239 z"/>
<path transform="translate(0,0)" fill="rgb(14,23,50)" d="M 513.225 511.024 C 524.157 512.869 531.665 514.85 542.104 518.685 C 536.04 521.931 510.453 517.088 506.23 512.53 C 508.254 510.596 509.553 511.249 513.225 511.024 z"/>
<path transform="translate(0,0)" fill="rgb(7,17,41)" d="M 193.161 535.726 C 194.309 533.157 193.436 534.249 196.26 532.714 C 205.337 533.036 220.333 541.161 221.41 550.905 C 220.93 551.494 220.229 552.452 219.685 552.899 C 212.863 542.713 204.581 539.169 193.161 535.726 z"/>
<path transform="translate(0,0)" fill="rgb(3,6,24)" d="M 46.062 1131.1 C 56.305 1130.93 71.1188 1127.96 81.0356 1125.4 L 81.5078 1127.63 C 76.13 1135.39 54.1202 1136.07 46.062 1131.1 z"/>
<path transform="translate(0,0)" fill="rgb(14,23,50)" d="M 523.963 868.832 L 521.853 867.804 C 522.891 862.754 531.971 856.918 537.243 856.994 L 538.257 860.671 L 523.963 868.832 z"/>
<path transform="translate(0,0)" fill="rgb(14,23,50)" d="M 392.719 536.828 C 391.067 535.531 369.714 534.895 365.398 534.306 C 379.113 533.525 392.687 534.518 406.401 535.025 C 412.477 535.249 417.789 536.925 423.612 536.041 L 424.382 535.095 C 415.448 531.814 397.634 534.275 390.676 531.443 C 398.759 529.163 438.59 534.114 447.351 538.863 C 448.441 539.454 448.391 540.056 449.115 541.48 L 448.147 542.626 C 428.118 538.368 412.968 537.481 392.719 536.828 z"/>
<path transform="translate(0,0)" fill="rgb(27,42,71)" d="M 1981.33 1070.55 C 1974.43 1079.21 1968.5 1088.61 1961.14 1097.55 C 1937.26 1126.82 1906 1149.19 1870.59 1162.36 C 1775.54 1196.95 1661.81 1151.82 1645.93 1045.16 C 1645.23 1040.46 1642.06 1033.45 1641.83 1028.9 C 1636.05 913.465 1703.84 789.044 1815.47 748.612 C 1879.96 726.217 1982.15 733.474 2008.54 808.137 C 2015.51 827.847 2013.03 859.834 2003.07 878.578 C 1983.02 916.351 1949.93 931.969 1911.14 944.033 C 1906.77 945.203 1903 946.326 1898.5 946.94 C 1844.33 959.17 1801.36 959.035 1746.04 958.209 C 1736.2 985.803 1740.16 1031.06 1752.92 1057.17 C 1780.16 1112.91 1847.42 1122.36 1899.14 1096.25 C 1918.36 1086.55 1934.1 1073.22 1949.81 1058.57 C 1953.05 1055.64 1961.28 1046.07 1962.95 1045.28 C 1967.93 1047.01 1976.16 1052.78 1980.17 1056.3 C 1984.13 1059.53 1984.11 1058.49 1985.37 1062.55 C 1984.1 1066.32 1983.48 1067.12 1981.33 1070.55 z M 1751.65 919.969 C 1796.1 923.012 1868.93 917.602 1903.57 887.438 C 1912.14 879.967 1915.4 875.055 1921.39 865.985 C 1934.72 840.075 1933.24 802.911 1906.09 786.334 L 1902.87 783.66 C 1881.89 775.162 1870.76 774.326 1849.23 783.376 C 1848.12 783.839 1847.01 784.327 1845.91 784.838 C 1792.14 812.396 1769.46 865.162 1751.65 919.969 z"/>
<path transform="translate(0,0)" fill="rgb(3,6,24)" d="M 1898.5 946.94 C 1895.64 946.952 1890.52 947.432 1888.41 945.995 C 1892.27 942.191 1906.73 937.902 1911.18 941.533 L 1911.14 944.033 C 1906.77 945.203 1903 946.326 1898.5 946.94 z"/>
<path transform="translate(0,0)" fill="rgb(7,17,41)" d="M 1980.17 1056.3 C 1984.13 1059.53 1984.11 1058.49 1985.37 1062.55 C 1984.1 1066.32 1983.48 1067.12 1981.33 1070.55 C 1977.85 1070.65 1979.25 1071.18 1976.72 1069.7 C 1976.2 1065.86 1978.67 1062.65 1979.93 1057.35 L 1980.17 1056.3 z"/>
<path transform="translate(0,0)" fill="rgb(14,23,50)" d="M 1845.91 784.838 L 1844.2 783.661 C 1841.06 772.032 1901.51 767.713 1905.09 782.27 L 1902.87 783.66 C 1881.89 775.162 1870.76 774.326 1849.23 783.376 C 1848.12 783.839 1847.01 784.327 1845.91 784.838 z"/>
<path transform="translate(0,0)" fill="rgb(27,42,71)" d="M 748.357 1324 C 778.574 1325.34 813.143 1325.3 843.41 1324.68 C 902.558 1323.48 960.209 1326.39 1003.57 1374.06 C 1031.04 1404.14 1045.3 1443.98 1043.15 1484.66 C 1038.51 1567.37 979.201 1626.17 898.938 1637.98 C 871.282 1642.57 837.123 1640.52 808.743 1640.81 C 798.432 1640.91 754.839 1642.4 748.372 1640.45 L 747.206 1638.09 C 748.593 1629.89 748.158 1611.91 748.145 1602.93 L 748.008 1542.77 C 747.871 1470.6 747.286 1396 748.357 1324 z M 816.632 1582.92 C 828.969 1583.71 847.033 1583.15 859.704 1583.16 C 862.523 1583.05 867.248 1582.69 869.901 1582.77 C 926.798 1578.07 971.634 1542.74 972.45 1482.59 C 972.806 1456.35 966.295 1431.51 947.727 1412.05 C 911.056 1373.63 864.443 1381.11 816.567 1379.85 C 815.524 1446.17 816.706 1516.24 816.632 1582.92 z"/>
<path transform="translate(0,0)" fill="rgb(3,6,24)" d="M 747.206 1638.09 L 749.995 1633.7 C 750.256 1633.85 750.51 1634.02 750.777 1634.16 C 757.726 1637.81 849.651 1637.35 861.851 1636.79 C 872.986 1636.28 884.662 1633.59 895.635 1633.62 C 897.674 1633.63 898.47 1634 899.751 1635.5 L 898.938 1637.98 C 871.282 1642.57 837.123 1640.52 808.743 1640.81 C 798.432 1640.91 754.839 1642.4 748.372 1640.45 L 747.206 1638.09 z"/>
<path transform="translate(0,0)" fill="rgb(7,17,41)" d="M 859.704 1583.16 C 862.523 1583.05 867.248 1582.69 869.901 1582.77 C 872.804 1583.23 876.478 1583.38 879.472 1583.6 L 874.785 1585.41 C 875.184 1586.41 875.197 1585.93 874.838 1586.85 C 874.146 1586.96 873.452 1587.05 872.756 1587.13 C 867.777 1587.7 844.166 1588.16 840.763 1585.47 C 844.84 1583.01 855.409 1585.8 859.704 1583.16 z"/>
<path transform="translate(0,0)" fill="rgb(27,42,71)" d="M 1201.77 770.507 C 1201.71 764.742 1201.05 755.965 1202.7 750.81 C 1206.42 748.814 1316.29 749.413 1328.39 750.007 C 1341.57 749.841 1355.3 749.856 1368.42 749.158 C 1368.01 756.361 1369.15 769.056 1365.14 773.659 C 1350.37 781.199 1329.82 781.918 1313.5 792.226 C 1271.32 818.87 1239.99 858.46 1204.54 892.974 C 1196.37 900.968 1173.64 922.769 1167.46 930.115 C 1171.26 941.017 1176.36 951.714 1180.77 962.463 C 1188.71 982.413 1196.81 1002.3 1205.07 1022.13 C 1229.44 1081.33 1243.89 1150.66 1323.82 1103.19 C 1323.81 1109.08 1326.3 1134.69 1322.55 1136.86 C 1276.89 1163.24 1231.45 1178.62 1179.41 1163.32 L 1172.08 1159.39 C 1137.55 1140.42 1123.32 1087.36 1108.57 1051.02 C 1105.77 1045.43 1103.64 1039.54 1101.39 1033.69 C 1098.27 1026.59 1094.5 1017.27 1090.49 1010.85 C 1073.55 1032.25 1049.79 1052.14 1031.57 1072.85 C 1017.15 1089.25 1006.29 1097.32 1002.27 1119.86 C 1008.95 1136.93 1022.34 1140.79 1039.83 1138.81 C 1041.22 1143.5 1040.08 1158.21 1039.65 1163.88 C 1031.68 1166.86 904.32 1165.08 884.958 1165.03 C 884.322 1157.37 883.874 1142.16 886.597 1134.87 C 889.443 1132.35 899.64 1129.5 902.507 1128.24 C 941.65 1110.94 975.988 1075.16 1004.88 1045.13 C 1029.73 1019.31 1052.35 994.529 1075.89 969.161 C 1068.17 949.484 1058.6 929.01 1051.39 909.945 C 1048.64 905.473 1042.9 891.863 1041.19 886.81 C 1038.51 882.06 1035.12 871.987 1032.62 866.623 C 1014.98 828.715 1010.29 801.11 969.324 783.645 C 956.495 780.032 949.828 779.189 936.84 778.157 L 938.576 751.973 C 939.661 757.279 938.89 766.404 940.511 769.945 C 942.582 768.952 942.135 768.49 943.28 765.609 L 943.201 764.004 C 943.226 758.526 942.222 754.852 941.726 749.494 C 975.552 751.259 1014.63 748.905 1048.68 749.97 C 1059.3 750.302 1077.09 749.337 1086.99 750.977 C 1090.84 754.308 1092.63 755.722 1095.79 759.87 C 1105.54 768.5 1143.6 871.237 1151.76 890.668 C 1173.32 868.858 1232.22 818.369 1236.9 790.859 C 1229.45 773.306 1218.3 773.367 1201.77 770.507 z"/>
<path transform="translate(0,0)" fill="rgb(3,6,24)" d="M 941.726 749.494 C 975.552 751.259 1014.63 748.905 1048.68 749.97 C 1059.3 750.302 1077.09 749.337 1086.99 750.977 C 1090.84 754.308 1092.63 755.722 1095.79 759.87 L 1093.88 761.527 C 1086.78 760.151 1085.2 756.295 1077.96 755.945 C 1058.99 755.03 1037.05 755.22 1018.2 755.133 C 1004.93 755.072 956.221 752.145 945.66 755.554 C 943.21 758.165 943.542 760.172 943.201 764.004 C 943.226 758.526 942.222 754.852 941.726 749.494 z"/>
<path transform="translate(0,0)" fill="rgb(3,6,24)" d="M 1201.77 770.507 C 1201.71 764.742 1201.05 755.965 1202.7 750.81 C 1206.42 748.814 1316.29 749.413 1328.39 750.007 C 1334.46 751.835 1344.47 751.573 1351.02 751.757 C 1329.87 751.852 1313.4 753.019 1292.77 753.777 C 1307.03 754.4 1320.54 753.744 1334.62 753.923 C 1319.44 758.105 1283.94 752.775 1266.93 755.129 C 1256 756.64 1215.6 751.209 1208.37 758.08 C 1207.52 762.706 1207.41 763.814 1208.75 768.321 L 1208.25 769.584 L 1201.77 770.507 z"/>
<path transform="translate(0,0)" fill="rgb(7,17,41)" d="M 1201.77 770.507 L 1208.25 769.584 L 1208.75 768.321 C 1207.41 763.814 1207.52 762.706 1208.37 758.08 C 1209.19 763.399 1208.1 762.846 1213.46 765.064 C 1228.11 771.118 1241.23 776.149 1239.26 794.107 L 1236.9 790.859 C 1229.45 773.306 1218.3 773.367 1201.77 770.507 z"/>
<path transform="translate(0,0)" fill="rgb(14,23,50)" d="M 938.576 751.973 C 939.661 757.279 938.89 766.404 940.511 769.945 C 942.582 768.952 942.135 768.49 943.28 765.609 C 943.587 769.891 942.886 768.85 945.185 771.663 C 952.219 774.841 968.416 778.015 970.867 781.038 L 971.001 782.792 L 969.324 783.645 C 956.495 780.032 949.828 779.189 936.84 778.157 L 938.576 751.973 z"/>
<path transform="translate(0,0)" fill="rgb(3,6,24)" d="M 1039.83 1138.81 C 1041.22 1143.5 1040.08 1158.21 1039.65 1163.88 C 1036.93 1163.63 1034.53 1163.04 1031.87 1162.48 C 1036.16 1150.39 1036.57 1152.65 1034 1140.6 L 1039.83 1138.81 z"/>
<path transform="translate(0,0)" fill="rgb(14,23,50)" d="M 1041.19 886.81 L 1042.63 885.591 C 1047.85 893.382 1057.42 899.584 1051.39 909.945 C 1048.64 905.473 1042.9 891.863 1041.19 886.81 z"/>
<path transform="translate(0,0)" fill="rgb(14,23,50)" d="M 1101.39 1033.69 L 1102.15 1031.8 C 1106.94 1037.56 1113.51 1042.91 1108.57 1051.02 C 1105.77 1045.43 1103.64 1039.54 1101.39 1033.69 z"/>
<path transform="translate(0,0)" fill="rgb(14,23,50)" d="M 1172.08 1159.39 C 1176.72 1156.5 1181.69 1156.55 1185.18 1161.31 L 1184.16 1162.72 L 1179.41 1163.32 L 1172.08 1159.39 z"/>
<path transform="translate(0,0)" fill="rgb(27,42,71)" d="M 710.995 807.251 C 702.813 807.417 690.06 810.975 686.174 810.476 C 681.564 806.041 680.583 792.111 683.126 786.352 C 695.069 774.667 797.334 746.244 819.422 745.901 C 866.814 745.166 833.567 815.156 831.185 839.795 C 830.891 842.832 828.768 851.073 827.773 854.126 C 824.312 873.247 812.607 913.324 811.194 928.706 C 806.918 940.758 802.121 967.259 798.863 980.884 C 793.535 1002.46 788.437 1024.09 783.569 1045.77 C 781.598 1054.44 768.388 1100.12 780.878 1104.33 C 805.066 1112.46 819.318 1084 837.801 1076.22 C 841.089 1074.84 850.875 1091.98 851.456 1095.27 C 846.433 1110.12 794.603 1150.39 778.598 1159.07 C 725.767 1186.58 670.433 1171.36 680.911 1101.98 C 687.021 1061.54 695.968 1022.99 705.18 983.007 C 712.238 952.027 719.11 921.006 725.795 889.944 C 730.221 869.2 741.703 836.717 730.836 817.942 C 724.005 810.621 720.3 809.613 710.995 807.251 z"/>
<path transform="translate(0,0)" fill="rgb(7,17,41)" d="M 710.995 807.251 L 710.027 806.097 C 706.995 805.969 704.122 806.199 701.496 805.003 C 708.677 801.732 736.551 804.932 730.836 817.942 C 724.005 810.621 720.3 809.613 710.995 807.251 z"/>
<path transform="translate(0,0)" fill="rgb(27,42,71)" d="M 1071.84 1324.67 C 1087.73 1324.66 1129.13 1323.58 1142.72 1325.26 L 1148.24 1335.08 C 1154.42 1347.96 1164.71 1377.66 1170.41 1392.26 C 1184.17 1426.79 1197.58 1461.45 1210.65 1496.25 C 1220.92 1523.26 1228.69 1545.79 1240.42 1572.57 C 1247.29 1557.48 1254.04 1537.61 1259.77 1521.81 C 1267.61 1500.27 1275.59 1478.78 1283.7 1457.34 C 1298.62 1417.73 1320.57 1365.94 1333.06 1325.86 C 1339.27 1323.94 1370.73 1324.63 1378.93 1324.63 L 1407.43 1324.7 C 1402.56 1333.95 1396.72 1351.45 1392.61 1361.88 L 1366.79 1426.16 C 1359.36 1445.11 1287.14 1623.06 1284.48 1625.77 C 1282.81 1630.6 1281.43 1634.78 1279.27 1639.42 C 1272.5 1641.98 1209.46 1640.75 1198.14 1640.71 C 1186.82 1606.3 1169.66 1573 1156.7 1539.43 C 1136.79 1487.87 1114.18 1437.33 1094.2 1385.88 C 1088.3 1370.71 1072.32 1339.33 1069.52 1325.72 L 1071.84 1324.67 z"/>
<path transform="translate(0,0)" fill="rgb(3,6,24)" d="M 1274.45 1635.54 C 1276.18 1631.58 1280.26 1621.01 1283.55 1618.85 L 1284.84 1619.9 L 1284.48 1625.77 C 1282.81 1630.6 1281.43 1634.78 1279.27 1639.42 C 1271.82 1637.92 1225.95 1639 1213.77 1638.48 L 1214.02 1638.06 C 1234.71 1635.91 1253.72 1638.08 1274.45 1635.54 z"/>
<path transform="translate(0,0)" fill="rgb(27,42,71)" d="M 1618.24 1645.08 C 1616.54 1645.48 1615.44 1645.65 1613.74 1645.78 C 1567.75 1649.32 1521.96 1638.86 1486.39 1608.58 C 1454.37 1581.73 1434.45 1543.16 1431.1 1501.51 C 1420.41 1351.77 1573.12 1274.15 1695.93 1344.21 C 1707.53 1350.84 1716.12 1358.76 1726.05 1367.52 C 1720.6 1378.22 1699.18 1403.26 1690.8 1413.7 C 1664.49 1380.31 1600.98 1367.97 1562.34 1384.32 C 1537.82 1394.87 1518.6 1414.87 1509.04 1439.79 C 1499.93 1462.85 1499.03 1507.5 1510.05 1529.98 C 1524.04 1558.54 1540.55 1572.36 1569.18 1583.48 C 1595.79 1588.29 1610.37 1588.68 1637.18 1583.52 C 1649.81 1579.39 1656.51 1577.17 1668.4 1570.75 C 1675.47 1566.93 1683.94 1560.95 1690.51 1557.59 C 1700.92 1569.84 1711.5 1581.94 1722.23 1593.9 C 1711.28 1612.24 1671.31 1632.73 1651.05 1638.66 C 1644.44 1640.41 1624.42 1645.78 1618.24 1645.08 z"/>
<path transform="translate(0,0)" fill="rgb(7,17,41)" d="M 1569.18 1583.48 C 1595.79 1588.29 1610.37 1588.68 1637.18 1583.52 L 1638.09 1584.34 C 1636.54 1585.97 1636.47 1585.62 1633.99 1586.36 C 1634.3 1588.41 1634.55 1587.54 1633.55 1589.03 C 1622.71 1593.01 1575.67 1594.55 1568.34 1586.38 L 1569.18 1583.48 z"/>
<path transform="translate(0,0)" fill="rgb(3,6,24)" d="M 1596.18 1643.94 C 1603.37 1642.53 1646.14 1634.63 1650.1 1635.81 L 1651.05 1638.66 C 1644.44 1640.41 1624.42 1645.78 1618.24 1645.08 C 1609.94 1645.05 1604.49 1645.07 1596.18 1643.94 z"/>
<path transform="translate(0,0)" fill="rgb(27,42,71)" d="M 1556.57 769.451 C 1559.39 769.125 1563.74 769.825 1566.31 771.002 C 1571.8 773.516 1575.65 778.633 1576.54 784.605 C 1578.98 800.814 1568.41 837.807 1564.47 855.238 L 1527.14 1017.05 C 1521.63 1041.07 1514.71 1064.9 1511.02 1089.26 C 1509.95 1096.31 1511.87 1107.7 1519.96 1109.24 C 1541 1113.26 1561.25 1090.66 1577.67 1080.72 L 1578.98 1079.93 C 1582.47 1086.64 1586 1093.33 1589.57 1099.99 C 1569.1 1126.04 1524.83 1162.28 1492.77 1171.95 C 1386.49 1191.04 1418.6 1097.88 1433.3 1033.46 L 1455.63 933.574 C 1461.57 908.078 1467.91 883.091 1472.14 857.234 C 1477.61 823.726 1448.2 819.676 1423.77 829.734 C 1423.97 820.306 1423.99 813.078 1423.49 803.612 C 1460.92 792.484 1518.6 771.826 1556.57 769.451 z"/>
<path transform="translate(0,0)" fill="url(#Gradient3)" d="M 1104.83 212.236 C 1117.38 185.627 1125.35 163.279 1130.16 133.961 C 1133.32 114.728 1134.92 98.2576 1139.45 79.137 C 1155.16 152.284 1156.34 227.509 1229.18 272.163 C 1239.91 278.744 1249.48 283.571 1261.57 287.249 C 1273.78 292.141 1313.04 296.707 1318.07 302.177 L 1317.73 303.508 C 1310.71 306.856 1294.48 307.771 1286.22 309.345 C 1251.69 315.929 1232.67 327.609 1206.31 348.835 C 1205.45 350.374 1200 356.02 1198.45 357.696 C 1160.94 398.357 1148.35 457.077 1140.17 510.855 C 1129.24 414.598 1093.74 323.19 984.675 306.668 C 977.795 305.626 969.708 305.947 963.2 303.543 L 962.907 302.092 C 970.814 296.707 987.686 296.297 997.555 293.293 C 1050.94 277.039 1077.48 260.002 1104.83 212.236 z"/>
<path transform="translate(0,0)" fill="rgb(230,198,149)" d="M 1104.83 212.236 C 1117.38 185.627 1125.35 163.279 1130.16 133.961 C 1133.32 114.728 1134.92 98.2576 1139.45 79.137 C 1155.16 152.284 1156.34 227.509 1229.18 272.163 C 1239.91 278.744 1249.48 283.571 1261.57 287.249 C 1273.78 292.141 1313.04 296.707 1318.07 302.177 L 1317.73 303.508 C 1310.71 306.856 1294.48 307.771 1286.22 309.345 C 1251.69 315.929 1232.67 327.609 1206.31 348.835 L 1205.34 347.912 C 1200.74 349.615 1199.92 354.699 1195.27 355.824 C 1193.07 351.832 1192.92 338.583 1191.53 334.124 C 1187.1 322.617 1181.11 302.17 1173.41 292.878 C 1159.35 275.937 1142.9 258.246 1127.88 242.021 C 1121.63 235.264 1110.59 229.555 1104.27 222.493 C 1101.92 219.874 1106.82 217.532 1104.83 212.236 z"/>
<path transform="translate(0,0)" fill="url(#Gradient2)" d="M 924.944 40.4404 C 935.532 40.287 952.318 38.094 960.798 38.2245 C 989.722 38.6695 1055.91 38.4826 1082.47 44.9494 C 1066.6 44.237 1074.32 50.9108 1061.49 51.8324 C 1046.6 52.9025 1030.31 51.2474 1015.26 50.907 C 1006.81 50.7157 995.99 52.4442 988.832 51.8432 L 988.475 52.9004 C 993.897 53.8024 1000.03 51.9899 1007.21 53.1197 C 992.587 54.7113 978.426 54.775 964.01 56.0863 C 921.109 59.5624 878.405 65.1528 836.055 72.8373 C 834.648 70.6805 835.289 71.4508 832.953 69.9973 C 829.048 69.7648 828.378 70.1611 824.522 71.2928 C 817.635 70.6287 799.562 70.56 796.102 77.4206 L 796.649 79.3821 L 800.493 80.7906 C 673.974 109.545 558.094 173.305 466.091 264.789 C 448.466 282.366 431.331 302.752 416.346 322.768 C 414.093 325.778 407.917 336.124 405.567 338.179 L 404.3 337.735 C 402.344 339.119 402.067 338.806 399.57 338.786 L 401.305 337.949 C 397.13 337.271 397.614 337.917 392.981 339.752 C 395.715 335.817 400.389 330.245 400.378 325.823 L 398.31 324.73 C 409.116 297.626 440.202 268.623 460.116 246.515 L 458.21 242.198 C 472.546 228.883 495.424 207.188 510.556 195.588 C 547.054 169.002 586.226 140.439 627.689 121.956 C 669.788 103.191 715.332 83.5416 759.257 69.6667 C 789.772 60.0278 826.655 53.4284 858.01 48.593 L 860.193 49.8473 C 868.565 48.4773 885.933 48.5494 895.206 48.37 L 891.923 49.0787 C 900.755 49.7693 920.528 47.6482 928.369 43.9683 L 928.306 42.5352 L 924.944 40.4404 z"/>
<path transform="translate(0,0)" fill="rgb(27,42,71)" d="M 820.039 588.208 C 831.466 586.463 845.884 587.865 856.091 593.797 C 866.623 600.024 874.254 610.175 877.309 622.023 C 885.898 656.402 858.724 691.198 825.077 698.814 C 745.175 706.96 750.643 603.441 820.039 588.208 z"/>
<path transform="translate(0,0)" fill="rgb(190,191,215)" fill-opacity="0.796078" d="M 211.008 1214.33 L 211.46 1215.66 C 212.867 1219.92 211.612 1220.14 214.16 1224.81 L 215.551 1224.5 C 216.876 1221.28 216.913 1221.3 217.306 1217.86 C 218.206 1220.74 219.26 1225.45 221.242 1227.41 C 223.421 1226.34 222.702 1227.19 223.755 1225.16 C 225.194 1230.26 227.201 1236.54 227.775 1241.68 C 225.245 1247.75 226.499 1263.76 231.762 1267.11 C 233.677 1264.32 232.981 1263.85 233.082 1259.73 C 238.231 1284.04 252.176 1309.42 263.812 1331.04 C 288.613 1377.11 316.838 1421.35 351.152 1460.97 C 359.531 1471.15 368.215 1481.25 376.753 1491.27 C 381.72 1497.11 389.913 1501.47 394.457 1506.9 C 426.232 1544.88 464.848 1574.6 506.315 1601.31 C 513.911 1606.21 520.46 1617.42 529.256 1621.67 C 545.514 1631.38 563.823 1644.41 580.404 1653.36 L 576.503 1654.78 L 575.245 1654.34 C 568.2 1649.64 565.091 1649.93 557.29 1643.17 C 550.41 1638.11 539.568 1634.78 531.799 1630.82 C 525.987 1627.87 523.386 1621.41 516.976 1621.93 L 516.119 1622.87 C 519.809 1630.01 538.581 1639.85 546.049 1644.97 L 542.747 1646.84 C 514.24 1632.44 461.456 1595.7 437.031 1574.52 C 389.407 1533.23 335.083 1476.89 299.036 1425.62 C 277.993 1395.69 233.891 1321.62 225.727 1286.95 C 230.996 1280.01 222.846 1263.94 218.74 1257.27 L 216.944 1257.23 L 215.406 1260.07 C 214.985 1256.41 211.611 1245.09 210.489 1241 L 212.792 1240.12 C 213.231 1237.13 210.129 1225.05 211.008 1214.33 z M 245.497 1322.29 L 244.806 1317.44 C 245.951 1316.12 246.835 1315.15 248.071 1313.93 C 249.105 1308.41 245.513 1304.59 242.292 1299.46 C 244.795 1312.14 237.346 1307.84 243.557 1321.1 C 244.006 1321.4 245.056 1322.2 245.497 1322.29 z"/>
<path transform="translate(0,0)" fill="rgb(190,191,215)" fill-opacity="0.811765" d="M 242.292 1299.46 C 245.513 1304.59 249.105 1308.41 248.071 1313.93 C 246.835 1315.15 245.951 1316.12 244.806 1317.44 L 245.497 1322.29 C 245.056 1322.2 244.006 1321.4 243.557 1321.1 C 237.346 1307.84 244.795 1312.14 242.292 1299.46 z"/>
<path transform="translate(0,0)" fill="rgb(27,42,71)" d="M 1506.24 678.923 C 1509.49 673.912 1512.12 670.285 1515.86 666.019 C 1530.08 649.809 1561.46 642.148 1579.51 655.499 C 1613.53 680.647 1591.01 733.922 1552.08 738.484 C 1540.43 739.849 1527.97 739.88 1518.04 732.945 C 1516.32 731.64 1510.14 726.469 1509.01 725.834 C 1497.91 709.972 1499.84 696.011 1506.24 678.923 z"/>
<path transform="translate(0,0)" fill="url(#Gradient1)" d="M 363.798 321.282 C 367.133 325.497 368.068 326.663 372.284 330.239 C 378.195 335.749 377.036 336.724 380.794 343.449 C 382.809 347.119 388.366 356.985 392.039 358.352 C 392.392 358.483 393.442 359.152 393.711 359.48 C 398.744 366.508 413.427 371.416 421.396 377.121 C 410.901 380.005 398.351 382.541 388.351 386.016 C 383.349 387.754 374.485 405.522 371.333 409.604 C 369.545 412.339 369.631 413.196 367.122 414.502 C 364.56 411.456 364.487 403.246 362.887 398.748 C 361.252 394.153 360.067 392.28 357.529 388.233 C 353.188 384.453 341.445 378.75 335.592 375.415 C 356.433 367.526 361.813 368.983 364.305 345.323 C 364.649 338.167 364.049 328.604 363.798 321.282 z"/>
<path transform="translate(0,0)" fill="rgb(190,191,215)" d="M 357.529 388.233 C 360.138 387.679 358.784 387.607 361.626 389.432 L 362.253 385.384 C 365.207 394.672 369.508 400.46 371.333 409.604 C 369.545 412.339 369.631 413.196 367.122 414.502 C 364.56 411.456 364.487 403.246 362.887 398.748 C 361.252 394.153 360.067 392.28 357.529 388.233 z"/>
<path transform="translate(0,0)" fill="rgb(190,191,215)" d="M 363.798 321.282 C 367.133 325.497 368.068 326.663 372.284 330.239 C 368.027 336.126 367.502 340.406 364.305 345.323 C 364.649 338.167 364.049 328.604 363.798 321.282 z"/>
<path transform="translate(0,0)" fill="rgb(190,191,215)" fill-opacity="0.945098" d="M 458.21 242.198 L 460.116 246.515 C 440.202 268.623 409.116 297.626 398.31 324.73 C 395.154 329.873 392.627 333.571 390.609 339.282 L 391.19 340.737 L 392.981 339.752 C 397.614 337.917 397.13 337.271 401.305 337.949 L 399.57 338.786 C 402.067 338.806 402.344 339.119 404.3 337.735 L 405.567 338.179 C 403.463 342.148 396.019 356.81 393.711 359.48 C 393.442 359.152 392.392 358.483 392.039 358.352 C 388.366 356.985 382.809 347.119 380.794 343.449 C 401.112 302.605 426.368 274.631 458.21 242.198 z"/>
<path transform="translate(0,0)" fill="rgb(190,191,215)" fill-opacity="0.964706" d="M 195.565 1166.02 L 198.024 1167.36 C 202.772 1171.92 202.316 1171.32 208.931 1168.6 C 211.133 1169.53 212.072 1170.22 212.963 1173.16 C 217.757 1188.95 218.29 1209.81 223.755 1225.16 C 222.702 1227.19 223.421 1226.34 221.242 1227.41 C 219.26 1225.45 218.206 1220.74 217.306 1217.86 C 214.412 1209.2 211.687 1195.27 210.122 1186.24 C 209.86 1181.16 210.066 1179.13 207.423 1174.64 L 205.899 1173.53 C 203.362 1177.25 203.779 1180.35 204.624 1184.92 L 204.934 1186.55 C 205.738 1190.9 205.844 1194.42 208.188 1198.12 C 211.756 1205.42 208.065 1207.05 211.008 1214.33 C 210.129 1225.05 213.231 1237.13 212.792 1240.12 L 210.489 1241 C 206.001 1226.47 196.514 1181.31 195.565 1166.02 z"/>
<path transform="translate(0,0)" fill="rgb(190,191,215)" fill-opacity="0.937255" d="M 858.01 48.593 C 875.086 44.6211 907.363 41.6724 924.944 40.4404 L 928.306 42.5352 L 928.369 43.9683 C 920.528 47.6482 900.755 49.7693 891.923 49.0787 L 895.206 48.37 C 885.933 48.5494 868.565 48.4773 860.193 49.8473 L 858.01 48.593 z"/>
<path transform="translate(0,0)" fill="rgb(197,198,212)" fill-opacity="0.933333" d="M 1007.21 53.1197 C 1000.03 51.9899 993.897 53.8024 988.475 52.9004 L 988.832 51.8432 C 995.99 52.4442 1006.81 50.7157 1015.26 50.907 C 1030.31 51.2474 1046.6 52.9025 1061.49 51.8324 C 1074.32 50.9108 1066.6 44.237 1082.47 44.9494 C 1085.51 45.1548 1090.34 45.3216 1093.16 45.9752 C 1088.86 46.2435 1085.25 46.5002 1080.92 46.3563 C 1081.1 48.8885 1081.66 48.9692 1081.21 51.6412 C 1084.97 51.6703 1085.91 50.9333 1088.72 52.5391 C 1070.48 55.2192 1026.28 53.5375 1007.21 53.1197 z"/>
<path transform="translate(0,0)" fill="rgb(197,198,212)" fill-opacity="0.780392" d="M 546.049 1644.97 C 549.883 1643.01 548.645 1642.9 551.89 1643.77 C 555.074 1647.36 555.531 1649.39 559.796 1651.8 L 560.449 1652.06 C 565.146 1653.93 569.761 1657.46 573.956 1657.78 C 575.743 1655.74 575.394 1656.88 575.245 1654.34 L 576.503 1654.78 L 579.6 1656.05 C 579.367 1657.67 579.228 1657.74 579.769 1659.32 L 580.746 1659.32 C 585.68 1668.93 591.874 1668.79 601.79 1668.39 L 603.314 1669.37 C 600.266 1669.35 593.401 1668.78 591.293 1670.29 L 591.035 1670.91 C 589.111 1670.72 547.431 1649.44 542.747 1646.84 L 546.049 1644.97 z"/>
<path transform="translate(0,0)" fill="rgb(197,198,212)" fill-opacity="0.498039" d="M 546.049 1644.97 C 538.581 1639.85 519.809 1630.01 516.119 1622.87 L 516.976 1621.93 C 523.386 1621.41 525.987 1627.87 531.799 1630.82 C 539.568 1634.78 550.41 1638.11 557.29 1643.17 C 557.459 1647.4 557.848 1648 559.796 1651.8 C 555.531 1649.39 555.074 1647.36 551.89 1643.77 C 548.645 1642.9 549.883 1643.01 546.049 1644.97 z"/>
<path transform="translate(0,0)" fill="rgb(197,198,212)" fill-opacity="0.956863" d="M 603.314 1669.37 C 611.803 1674.77 644.621 1690.35 646.43 1693.55 L 644.951 1694.12 C 631.733 1687.78 604.627 1675.74 591.035 1670.91 L 591.293 1670.29 C 593.401 1668.78 600.266 1669.35 603.314 1669.37 z"/>
<path transform="translate(0,0)" fill="rgb(197,198,212)" fill-opacity="0.980392" d="M 1093.16 45.9752 C 1099.78 47.0401 1118.83 49.5084 1124.15 51.297 C 1119.67 53.9229 1117.57 52.7742 1111.61 52.9962 C 1101.4 53.3221 1099.05 53.8853 1088.72 52.5391 C 1085.91 50.9333 1084.97 51.6703 1081.21 51.6412 C 1081.66 48.9692 1081.1 48.8885 1080.92 46.3563 C 1085.25 46.5002 1088.86 46.2435 1093.16 45.9752 z"/>
<path transform="translate(0,0)" fill="rgb(190,191,215)" fill-opacity="0.94902" d="M 800.493 80.7906 L 796.649 79.3821 L 796.102 77.4206 C 799.562 70.56 817.635 70.6287 824.522 71.2928 C 823.749 73.3598 822.618 73.7067 820.619 75.3499 C 814.131 78.6076 807.749 78.0725 800.493 80.7906 z"/>
<path transform="translate(0,0)" fill="rgb(190,191,215)" fill-opacity="0.313725" d="M 210.122 1186.24 C 211.687 1195.27 214.412 1209.2 217.306 1217.86 C 216.913 1221.3 216.876 1221.28 215.551 1224.5 L 214.16 1224.81 C 211.612 1220.14 212.867 1219.92 211.46 1215.66 L 211.008 1214.33 C 208.065 1207.05 211.756 1205.42 208.188 1198.12 C 210.394 1194.72 209.266 1190.69 210.122 1186.24 z"/>
<path transform="translate(0,0)" fill="rgb(190,191,215)" fill-opacity="0.87451" d="M 215.406 1260.07 L 216.944 1257.23 L 218.74 1257.27 C 222.846 1263.94 230.996 1280.01 225.727 1286.95 C 222.761 1278.76 217.118 1267.72 215.406 1260.07 z"/>
<path transform="translate(0,0)" fill="rgb(190,191,215)" fill-opacity="0.890196" d="M 233.082 1259.73 C 232.981 1263.85 233.677 1264.32 231.762 1267.11 C 226.499 1263.76 225.245 1247.75 227.775 1241.68 C 229.693 1247.65 231.463 1253.67 233.082 1259.73 z"/>
<path transform="translate(0,0)" fill="rgb(190,191,215)" fill-opacity="0.203922" d="M 208.188 1198.12 C 205.844 1194.42 205.738 1190.9 204.934 1186.55 L 204.624 1184.92 C 203.779 1180.35 203.362 1177.25 205.899 1173.53 L 207.423 1174.64 C 210.066 1179.13 209.86 1181.16 210.122 1186.24 C 209.266 1190.69 210.394 1194.72 208.188 1198.12 z"/>
<path transform="translate(0,0)" fill="rgb(197,198,212)" fill-opacity="0.278431" d="M 557.29 1643.17 C 565.091 1649.93 568.2 1649.64 575.245 1654.34 C 575.394 1656.88 575.743 1655.74 573.956 1657.78 C 569.761 1657.46 565.146 1653.93 560.449 1652.06 L 559.796 1651.8 C 557.848 1648 557.459 1647.4 557.29 1643.17 z"/>
<path transform="translate(0,0)" fill="rgb(197,198,212)" fill-opacity="0.14902" d="M 580.746 1659.32 C 589.157 1659.21 589.43 1668.13 595.945 1663.43 C 599.845 1664.96 598.765 1664.69 601.79 1668.39 C 591.874 1668.79 585.68 1668.93 580.746 1659.32 z"/>
<path transform="translate(0,0)" fill="rgb(190,191,215)" fill-opacity="0.658824" d="M 580.404 1653.36 C 587.284 1657.02 589.766 1658.62 595.945 1663.43 C 589.43 1668.13 589.157 1659.21 580.746 1659.32 L 579.769 1659.32 C 579.228 1657.74 579.367 1657.67 579.6 1656.05 L 576.503 1654.78 L 580.404 1653.36 z"/>
<path transform="translate(0,0)" fill="rgb(7,17,41)" fill-opacity="0.988235" d="M 938.576 751.973 C 939.564 750.765 940.372 750.424 941.726 749.494 C 942.222 754.852 943.226 758.526 943.201 764.004 L 943.28 765.609 C 942.135 768.49 942.582 768.952 940.511 769.945 C 938.89 766.404 939.661 757.279 938.576 751.973 z"/>
<path transform="translate(0,0)" fill="rgb(207,203,204)" fill-opacity="0.8" d="M 1124.15 51.297 C 1131.61 53.1395 1139.06 54.9015 1146.29 57.547 C 1140.06 57.0005 1116.95 54.4645 1111.61 52.9962 C 1117.57 52.7742 1119.67 53.9229 1124.15 51.297 z"/>
<path transform="translate(0,0)" fill="rgb(190,191,215)" fill-opacity="0.639216" d="M 398.31 324.73 L 400.378 325.823 C 400.389 330.245 395.715 335.817 392.981 339.752 L 391.19 340.737 L 390.609 339.282 C 392.627 333.571 395.154 329.873 398.31 324.73 z"/>
<path transform="translate(0,0)" fill="rgb(190,191,215)" fill-opacity="0.898039" d="M 824.522 71.2928 C 828.378 70.1611 829.048 69.7648 832.953 69.9973 C 835.289 71.4508 834.648 70.6805 836.055 72.8373 C 830.554 74.2919 826.253 74.6908 820.619 75.3499 C 822.618 73.7067 823.749 73.3598 824.522 71.2928 z"/>
</svg>